<mxfile host="app.diagrams.net" agent="Mozilla/5.0 (Windows NT 10.0; Win64; x64) AppleWebKit/537.36 (KHTML, like Gecko) Chrome/135.0.0.0 Safari/537.36" version="26.2.14">
  <diagram name="Página-1" id="k5meM9XsOQuV9xOI_d1v">
    <mxGraphModel dx="1111" dy="465" grid="1" gridSize="10" guides="1" tooltips="1" connect="1" arrows="1" fold="1" page="1" pageScale="1" pageWidth="827" pageHeight="1169" math="0" shadow="0">
      <root>
        <mxCell id="0" />
        <mxCell id="1" parent="0" />
        <mxCell id="H7EMqPvTvVPx3IpTQP_k-1" value="Usuário" style="swimlane;fontStyle=1;align=center;verticalAlign=top;childLayout=stackLayout;horizontal=1;startSize=26;horizontalStack=0;resizeParent=1;resizeParentMax=0;resizeLast=0;collapsible=1;marginBottom=0;whiteSpace=wrap;html=1;" vertex="1" parent="1">
          <mxGeometry x="330" y="500" width="160" height="94" as="geometry" />
        </mxCell>
        <mxCell id="H7EMqPvTvVPx3IpTQP_k-2" value="- username: string&lt;div&gt;- senha: string&lt;/div&gt;" style="text;strokeColor=none;fillColor=none;align=left;verticalAlign=top;spacingLeft=4;spacingRight=4;overflow=hidden;rotatable=0;points=[[0,0.5],[1,0.5]];portConstraint=eastwest;whiteSpace=wrap;html=1;" vertex="1" parent="H7EMqPvTvVPx3IpTQP_k-1">
          <mxGeometry y="26" width="160" height="34" as="geometry" />
        </mxCell>
        <mxCell id="H7EMqPvTvVPx3IpTQP_k-3" value="" style="line;strokeWidth=1;fillColor=none;align=left;verticalAlign=middle;spacingTop=-1;spacingLeft=3;spacingRight=3;rotatable=0;labelPosition=right;points=[];portConstraint=eastwest;strokeColor=inherit;" vertex="1" parent="H7EMqPvTvVPx3IpTQP_k-1">
          <mxGeometry y="60" width="160" height="8" as="geometry" />
        </mxCell>
        <mxCell id="H7EMqPvTvVPx3IpTQP_k-4" value="+ allow_login()" style="text;strokeColor=none;fillColor=none;align=left;verticalAlign=top;spacingLeft=4;spacingRight=4;overflow=hidden;rotatable=0;points=[[0,0.5],[1,0.5]];portConstraint=eastwest;whiteSpace=wrap;html=1;" vertex="1" parent="H7EMqPvTvVPx3IpTQP_k-1">
          <mxGeometry y="68" width="160" height="26" as="geometry" />
        </mxCell>
        <mxCell id="H7EMqPvTvVPx3IpTQP_k-5" value="Dono" style="swimlane;fontStyle=1;align=center;verticalAlign=top;childLayout=stackLayout;horizontal=1;startSize=26;horizontalStack=0;resizeParent=1;resizeParentMax=0;resizeLast=0;collapsible=1;marginBottom=0;whiteSpace=wrap;html=1;" vertex="1" parent="1">
          <mxGeometry x="20" y="710" width="160" height="120" as="geometry" />
        </mxCell>
        <mxCell id="H7EMqPvTvVPx3IpTQP_k-6" value="- nome: string" style="text;strokeColor=none;fillColor=none;align=left;verticalAlign=top;spacingLeft=4;spacingRight=4;overflow=hidden;rotatable=0;points=[[0,0.5],[1,0.5]];portConstraint=eastwest;whiteSpace=wrap;html=1;" vertex="1" parent="H7EMqPvTvVPx3IpTQP_k-5">
          <mxGeometry y="26" width="160" height="26" as="geometry" />
        </mxCell>
        <mxCell id="H7EMqPvTvVPx3IpTQP_k-7" value="" style="line;strokeWidth=1;fillColor=none;align=left;verticalAlign=middle;spacingTop=-1;spacingLeft=3;spacingRight=3;rotatable=0;labelPosition=right;points=[];portConstraint=eastwest;strokeColor=inherit;" vertex="1" parent="H7EMqPvTvVPx3IpTQP_k-5">
          <mxGeometry y="52" width="160" height="8" as="geometry" />
        </mxCell>
        <mxCell id="H7EMqPvTvVPx3IpTQP_k-8" value="+ gerencia_cursos()&lt;div&gt;+ gerencia_professores()&lt;/div&gt;&lt;div&gt;+ gerencia_alunos()&lt;/div&gt;" style="text;strokeColor=none;fillColor=none;align=left;verticalAlign=top;spacingLeft=4;spacingRight=4;overflow=hidden;rotatable=0;points=[[0,0.5],[1,0.5]];portConstraint=eastwest;whiteSpace=wrap;html=1;" vertex="1" parent="H7EMqPvTvVPx3IpTQP_k-5">
          <mxGeometry y="60" width="160" height="60" as="geometry" />
        </mxCell>
        <mxCell id="H7EMqPvTvVPx3IpTQP_k-9" value="Professor" style="swimlane;fontStyle=1;align=center;verticalAlign=top;childLayout=stackLayout;horizontal=1;startSize=26;horizontalStack=0;resizeParent=1;resizeParentMax=0;resizeLast=0;collapsible=1;marginBottom=0;whiteSpace=wrap;html=1;" vertex="1" parent="1">
          <mxGeometry x="334" y="710" width="160" height="150" as="geometry" />
        </mxCell>
        <mxCell id="H7EMqPvTvVPx3IpTQP_k-10" value="- nome: string&lt;div&gt;- telefone: int&lt;/div&gt;&lt;div&gt;- valor_aula: float&lt;/div&gt;" style="text;strokeColor=none;fillColor=none;align=left;verticalAlign=top;spacingLeft=4;spacingRight=4;overflow=hidden;rotatable=0;points=[[0,0.5],[1,0.5]];portConstraint=eastwest;whiteSpace=wrap;html=1;" vertex="1" parent="H7EMqPvTvVPx3IpTQP_k-9">
          <mxGeometry y="26" width="160" height="54" as="geometry" />
        </mxCell>
        <mxCell id="H7EMqPvTvVPx3IpTQP_k-11" value="" style="line;strokeWidth=1;fillColor=none;align=left;verticalAlign=middle;spacingTop=-1;spacingLeft=3;spacingRight=3;rotatable=0;labelPosition=right;points=[];portConstraint=eastwest;strokeColor=inherit;" vertex="1" parent="H7EMqPvTvVPx3IpTQP_k-9">
          <mxGeometry y="80" width="160" height="8" as="geometry" />
        </mxCell>
        <mxCell id="H7EMqPvTvVPx3IpTQP_k-12" value="+ set_name()&lt;div&gt;+ set_telefone()&lt;/div&gt;&lt;div&gt;+ set_class_value()&lt;/div&gt;" style="text;strokeColor=none;fillColor=none;align=left;verticalAlign=top;spacingLeft=4;spacingRight=4;overflow=hidden;rotatable=0;points=[[0,0.5],[1,0.5]];portConstraint=eastwest;whiteSpace=wrap;html=1;" vertex="1" parent="H7EMqPvTvVPx3IpTQP_k-9">
          <mxGeometry y="88" width="160" height="62" as="geometry" />
        </mxCell>
        <mxCell id="H7EMqPvTvVPx3IpTQP_k-13" value="Aluno" style="swimlane;fontStyle=1;align=center;verticalAlign=top;childLayout=stackLayout;horizontal=1;startSize=26;horizontalStack=0;resizeParent=1;resizeParentMax=0;resizeLast=0;collapsible=1;marginBottom=0;whiteSpace=wrap;html=1;" vertex="1" parent="1">
          <mxGeometry x="630" y="710" width="160" height="154" as="geometry" />
        </mxCell>
        <mxCell id="H7EMqPvTvVPx3IpTQP_k-14" value="- nome: string&lt;div&gt;- n_RG: int&lt;/div&gt;&lt;div&gt;- n_CPF: int&lt;/div&gt;&lt;div&gt;- birthdate: int&lt;/div&gt;&lt;div&gt;- endereço: string&lt;/div&gt;&lt;div&gt;- telefone:int&lt;br&gt;&lt;div&gt;&lt;br&gt;&lt;/div&gt;&lt;/div&gt;" style="text;strokeColor=none;fillColor=none;align=left;verticalAlign=top;spacingLeft=4;spacingRight=4;overflow=hidden;rotatable=0;points=[[0,0.5],[1,0.5]];portConstraint=eastwest;whiteSpace=wrap;html=1;" vertex="1" parent="H7EMqPvTvVPx3IpTQP_k-13">
          <mxGeometry y="26" width="160" height="94" as="geometry" />
        </mxCell>
        <mxCell id="H7EMqPvTvVPx3IpTQP_k-15" value="" style="line;strokeWidth=1;fillColor=none;align=left;verticalAlign=middle;spacingTop=-1;spacingLeft=3;spacingRight=3;rotatable=0;labelPosition=right;points=[];portConstraint=eastwest;strokeColor=inherit;" vertex="1" parent="H7EMqPvTvVPx3IpTQP_k-13">
          <mxGeometry y="120" width="160" height="8" as="geometry" />
        </mxCell>
        <mxCell id="H7EMqPvTvVPx3IpTQP_k-16" value="+ realizar_cadastro()" style="text;strokeColor=none;fillColor=none;align=left;verticalAlign=top;spacingLeft=4;spacingRight=4;overflow=hidden;rotatable=0;points=[[0,0.5],[1,0.5]];portConstraint=eastwest;whiteSpace=wrap;html=1;" vertex="1" parent="H7EMqPvTvVPx3IpTQP_k-13">
          <mxGeometry y="128" width="160" height="26" as="geometry" />
        </mxCell>
        <mxCell id="H7EMqPvTvVPx3IpTQP_k-17" value="" style="endArrow=block;endSize=16;endFill=0;html=1;rounded=0;entryX=0.513;entryY=1;entryDx=0;entryDy=0;entryPerimeter=0;exitX=0.5;exitY=0;exitDx=0;exitDy=0;" edge="1" parent="1" source="H7EMqPvTvVPx3IpTQP_k-9" target="H7EMqPvTvVPx3IpTQP_k-4">
          <mxGeometry x="-0.0001" width="160" relative="1" as="geometry">
            <mxPoint x="330" y="750" as="sourcePoint" />
            <mxPoint x="490" y="750" as="targetPoint" />
            <mxPoint as="offset" />
          </mxGeometry>
        </mxCell>
        <mxCell id="H7EMqPvTvVPx3IpTQP_k-18" value="" style="endArrow=block;endSize=16;endFill=0;html=1;rounded=0;exitX=0.5;exitY=0;exitDx=0;exitDy=0;" edge="1" parent="1" source="H7EMqPvTvVPx3IpTQP_k-5">
          <mxGeometry width="160" relative="1" as="geometry">
            <mxPoint x="170" y="546.5" as="sourcePoint" />
            <mxPoint x="330" y="546.5" as="targetPoint" />
            <Array as="points">
              <mxPoint x="100" y="547" />
            </Array>
          </mxGeometry>
        </mxCell>
        <mxCell id="H7EMqPvTvVPx3IpTQP_k-19" value="" style="endArrow=block;endSize=16;endFill=0;html=1;rounded=0;entryX=1.013;entryY=0.706;entryDx=0;entryDy=0;exitX=0.5;exitY=0;exitDx=0;exitDy=0;entryPerimeter=0;" edge="1" parent="1" source="H7EMqPvTvVPx3IpTQP_k-13" target="H7EMqPvTvVPx3IpTQP_k-2">
          <mxGeometry width="160" relative="1" as="geometry">
            <mxPoint x="610" y="630" as="sourcePoint" />
            <mxPoint x="770" y="630" as="targetPoint" />
            <Array as="points">
              <mxPoint x="710" y="550" />
            </Array>
          </mxGeometry>
        </mxCell>
        <mxCell id="H7EMqPvTvVPx3IpTQP_k-20" value="" style="endArrow=none;html=1;rounded=0;exitX=0.5;exitY=0.983;exitDx=0;exitDy=0;exitPerimeter=0;" edge="1" parent="1" source="H7EMqPvTvVPx3IpTQP_k-8" target="H7EMqPvTvVPx3IpTQP_k-21">
          <mxGeometry width="50" height="50" relative="1" as="geometry">
            <mxPoint x="50" y="880" as="sourcePoint" />
            <mxPoint x="100" y="830" as="targetPoint" />
          </mxGeometry>
        </mxCell>
        <mxCell id="H7EMqPvTvVPx3IpTQP_k-21" value="Curso" style="swimlane;fontStyle=1;align=center;verticalAlign=top;childLayout=stackLayout;horizontal=1;startSize=26;horizontalStack=0;resizeParent=1;resizeParentMax=0;resizeLast=0;collapsible=1;marginBottom=0;whiteSpace=wrap;html=1;" vertex="1" parent="1">
          <mxGeometry x="20" y="938" width="160" height="150" as="geometry" />
        </mxCell>
        <mxCell id="H7EMqPvTvVPx3IpTQP_k-22" value="- carga_horaria: int&lt;div&gt;- lista_conteudo: string&lt;/div&gt;&lt;div&gt;- valor: float&lt;/div&gt;" style="text;strokeColor=none;fillColor=none;align=left;verticalAlign=top;spacingLeft=4;spacingRight=4;overflow=hidden;rotatable=0;points=[[0,0.5],[1,0.5]];portConstraint=eastwest;whiteSpace=wrap;html=1;" vertex="1" parent="H7EMqPvTvVPx3IpTQP_k-21">
          <mxGeometry y="26" width="160" height="54" as="geometry" />
        </mxCell>
        <mxCell id="H7EMqPvTvVPx3IpTQP_k-23" value="" style="line;strokeWidth=1;fillColor=none;align=left;verticalAlign=middle;spacingTop=-1;spacingLeft=3;spacingRight=3;rotatable=0;labelPosition=right;points=[];portConstraint=eastwest;strokeColor=inherit;" vertex="1" parent="H7EMqPvTvVPx3IpTQP_k-21">
          <mxGeometry y="80" width="160" height="8" as="geometry" />
        </mxCell>
        <mxCell id="H7EMqPvTvVPx3IpTQP_k-24" value="+ set_classload()&lt;div&gt;+ add_content()&lt;/div&gt;&lt;div&gt;+ set_value()&lt;/div&gt;" style="text;strokeColor=none;fillColor=none;align=left;verticalAlign=top;spacingLeft=4;spacingRight=4;overflow=hidden;rotatable=0;points=[[0,0.5],[1,0.5]];portConstraint=eastwest;whiteSpace=wrap;html=1;" vertex="1" parent="H7EMqPvTvVPx3IpTQP_k-21">
          <mxGeometry y="88" width="160" height="62" as="geometry" />
        </mxCell>
        <mxCell id="H7EMqPvTvVPx3IpTQP_k-25" value="1..*" style="text;html=1;align=center;verticalAlign=middle;resizable=0;points=[];autosize=1;strokeColor=none;fillColor=none;" vertex="1" parent="1">
          <mxGeometry x="96" y="908" width="40" height="30" as="geometry" />
        </mxCell>
        <mxCell id="H7EMqPvTvVPx3IpTQP_k-26" value="1" style="text;html=1;align=center;verticalAlign=middle;resizable=0;points=[];autosize=1;strokeColor=none;fillColor=none;" vertex="1" parent="1">
          <mxGeometry x="95" y="828" width="30" height="30" as="geometry" />
        </mxCell>
        <mxCell id="H7EMqPvTvVPx3IpTQP_k-27" value="Turma" style="swimlane;fontStyle=1;align=center;verticalAlign=top;childLayout=stackLayout;horizontal=1;startSize=26;horizontalStack=0;resizeParent=1;resizeParentMax=0;resizeLast=0;collapsible=1;marginBottom=0;whiteSpace=wrap;html=1;" vertex="1" parent="1">
          <mxGeometry x="20" y="1200" width="160" height="200" as="geometry" />
        </mxCell>
        <mxCell id="H7EMqPvTvVPx3IpTQP_k-28" value="- lista_alunos: string&lt;div&gt;- periodo: int&lt;/div&gt;&lt;div&gt;- nome_professor: string&lt;/div&gt;" style="text;strokeColor=none;fillColor=none;align=left;verticalAlign=top;spacingLeft=4;spacingRight=4;overflow=hidden;rotatable=0;points=[[0,0.5],[1,0.5]];portConstraint=eastwest;whiteSpace=wrap;html=1;" vertex="1" parent="H7EMqPvTvVPx3IpTQP_k-27">
          <mxGeometry y="26" width="160" height="64" as="geometry" />
        </mxCell>
        <mxCell id="H7EMqPvTvVPx3IpTQP_k-29" value="" style="line;strokeWidth=1;fillColor=none;align=left;verticalAlign=middle;spacingTop=-1;spacingLeft=3;spacingRight=3;rotatable=0;labelPosition=right;points=[];portConstraint=eastwest;strokeColor=inherit;" vertex="1" parent="H7EMqPvTvVPx3IpTQP_k-27">
          <mxGeometry y="90" width="160" height="8" as="geometry" />
        </mxCell>
        <mxCell id="H7EMqPvTvVPx3IpTQP_k-30" value="+ get_aluno()&lt;div&gt;+ get_periodo()&lt;/div&gt;&lt;div&gt;+ add_aluno()&lt;/div&gt;&lt;div&gt;+ add_professor()&lt;/div&gt;&lt;div&gt;+ remove_aluno()&lt;/div&gt;&lt;div&gt;+ remove_professor()&lt;/div&gt;" style="text;strokeColor=none;fillColor=none;align=left;verticalAlign=top;spacingLeft=4;spacingRight=4;overflow=hidden;rotatable=0;points=[[0,0.5],[1,0.5]];portConstraint=eastwest;whiteSpace=wrap;html=1;" vertex="1" parent="H7EMqPvTvVPx3IpTQP_k-27">
          <mxGeometry y="98" width="160" height="102" as="geometry" />
        </mxCell>
        <mxCell id="H7EMqPvTvVPx3IpTQP_k-31" value="Manages" style="text;html=1;align=center;verticalAlign=middle;resizable=0;points=[];autosize=1;strokeColor=none;fillColor=none;" vertex="1" parent="1">
          <mxGeometry x="38" y="864" width="70" height="30" as="geometry" />
        </mxCell>
        <mxCell id="H7EMqPvTvVPx3IpTQP_k-34" value="1" style="endArrow=open;html=1;endSize=12;startArrow=diamondThin;startSize=14;startFill=1;edgeStyle=orthogonalEdgeStyle;align=left;verticalAlign=bottom;rounded=0;entryX=0.5;entryY=0;entryDx=0;entryDy=0;" edge="1" parent="1" target="H7EMqPvTvVPx3IpTQP_k-27">
          <mxGeometry x="-0.6063" y="10" relative="1" as="geometry">
            <mxPoint x="99.5" y="1088" as="sourcePoint" />
            <mxPoint x="99.5" y="1178" as="targetPoint" />
            <mxPoint as="offset" />
          </mxGeometry>
        </mxCell>
        <mxCell id="H7EMqPvTvVPx3IpTQP_k-35" value="0..5" style="text;html=1;align=center;verticalAlign=middle;resizable=0;points=[];autosize=1;strokeColor=none;fillColor=none;" vertex="1" parent="1">
          <mxGeometry x="100" y="1168" width="40" height="30" as="geometry" />
        </mxCell>
        <mxCell id="H7EMqPvTvVPx3IpTQP_k-36" value="Matricula" style="swimlane;fontStyle=1;align=center;verticalAlign=top;childLayout=stackLayout;horizontal=1;startSize=26;horizontalStack=0;resizeParent=1;resizeParentMax=0;resizeLast=0;collapsible=1;marginBottom=0;whiteSpace=wrap;html=1;" vertex="1" parent="1">
          <mxGeometry x="630" y="960" width="160" height="150" as="geometry" />
        </mxCell>
        <mxCell id="H7EMqPvTvVPx3IpTQP_k-37" value="- valor_pago: float&lt;div&gt;- nome_aluno: string&lt;/div&gt;&lt;div&gt;- turma: int&lt;/div&gt;" style="text;strokeColor=none;fillColor=none;align=left;verticalAlign=top;spacingLeft=4;spacingRight=4;overflow=hidden;rotatable=0;points=[[0,0.5],[1,0.5]];portConstraint=eastwest;whiteSpace=wrap;html=1;" vertex="1" parent="H7EMqPvTvVPx3IpTQP_k-36">
          <mxGeometry y="26" width="160" height="54" as="geometry" />
        </mxCell>
        <mxCell id="H7EMqPvTvVPx3IpTQP_k-38" value="" style="line;strokeWidth=1;fillColor=none;align=left;verticalAlign=middle;spacingTop=-1;spacingLeft=3;spacingRight=3;rotatable=0;labelPosition=right;points=[];portConstraint=eastwest;strokeColor=inherit;" vertex="1" parent="H7EMqPvTvVPx3IpTQP_k-36">
          <mxGeometry y="80" width="160" height="8" as="geometry" />
        </mxCell>
        <mxCell id="H7EMqPvTvVPx3IpTQP_k-39" value="+ set_value()&lt;div&gt;+ set_name()&lt;/div&gt;&lt;div&gt;+ set_class()&lt;/div&gt;" style="text;strokeColor=none;fillColor=none;align=left;verticalAlign=top;spacingLeft=4;spacingRight=4;overflow=hidden;rotatable=0;points=[[0,0.5],[1,0.5]];portConstraint=eastwest;whiteSpace=wrap;html=1;" vertex="1" parent="H7EMqPvTvVPx3IpTQP_k-36">
          <mxGeometry y="88" width="160" height="62" as="geometry" />
        </mxCell>
        <mxCell id="H7EMqPvTvVPx3IpTQP_k-41" value="" style="endArrow=block;endSize=16;endFill=0;html=1;rounded=0;entryX=0.55;entryY=1.154;entryDx=0;entryDy=0;entryPerimeter=0;exitX=0.556;exitY=-0.027;exitDx=0;exitDy=0;exitPerimeter=0;" edge="1" parent="1" source="H7EMqPvTvVPx3IpTQP_k-36" target="H7EMqPvTvVPx3IpTQP_k-16">
          <mxGeometry width="160" relative="1" as="geometry">
            <mxPoint x="590" y="930" as="sourcePoint" />
            <mxPoint x="750" y="930" as="targetPoint" />
          </mxGeometry>
        </mxCell>
        <mxCell id="H7EMqPvTvVPx3IpTQP_k-44" value="1..3" style="endArrow=open;html=1;endSize=12;startArrow=diamondThin;startSize=14;startFill=1;edgeStyle=orthogonalEdgeStyle;align=left;verticalAlign=bottom;rounded=0;entryX=1;entryY=0.5;entryDx=0;entryDy=0;" edge="1" parent="1" target="H7EMqPvTvVPx3IpTQP_k-28">
          <mxGeometry x="-0.9045" y="10" relative="1" as="geometry">
            <mxPoint x="409.5" y="860" as="sourcePoint" />
            <mxPoint x="410" y="1280" as="targetPoint" />
            <mxPoint as="offset" />
          </mxGeometry>
        </mxCell>
        <mxCell id="H7EMqPvTvVPx3IpTQP_k-46" value="1" style="text;html=1;align=center;verticalAlign=middle;resizable=0;points=[];autosize=1;strokeColor=none;fillColor=none;" vertex="1" parent="1">
          <mxGeometry x="175" y="1228" width="30" height="30" as="geometry" />
        </mxCell>
        <mxCell id="H7EMqPvTvVPx3IpTQP_k-47" value="1..40" style="endArrow=open;html=1;endSize=12;startArrow=diamondThin;startSize=14;startFill=1;edgeStyle=orthogonalEdgeStyle;align=left;verticalAlign=bottom;rounded=0;entryX=1;entryY=0.167;entryDx=0;entryDy=0;entryPerimeter=0;exitX=0.566;exitY=1;exitDx=0;exitDy=0;exitPerimeter=0;" edge="1" parent="1" source="H7EMqPvTvVPx3IpTQP_k-39" target="H7EMqPvTvVPx3IpTQP_k-30">
          <mxGeometry x="-1" y="3" relative="1" as="geometry">
            <mxPoint x="720" y="1130" as="sourcePoint" />
            <mxPoint x="500" y="1310" as="targetPoint" />
          </mxGeometry>
        </mxCell>
        <mxCell id="H7EMqPvTvVPx3IpTQP_k-48" value="1" style="text;html=1;align=center;verticalAlign=middle;resizable=0;points=[];autosize=1;strokeColor=none;fillColor=none;" vertex="1" parent="1">
          <mxGeometry x="175" y="1278" width="30" height="30" as="geometry" />
        </mxCell>
      </root>
    </mxGraphModel>
  </diagram>
</mxfile>
